<svg width="11" height="12" viewBox="0 0 11 12" fill="none" xmlns="http://www.w3.org/2000/svg">
<path d="M0.83323 6.87207C0.61257 6.87101 0.40125 6.78289 0.245218 6.62685C0.0891859 6.47082 0.00105944 6.2595 0 6.03884C0.00369543 5.81901 0.0926685 5.60922 0.248136 5.45375C0.403603 5.29828 0.613397 5.20931 0.83323 5.20561L4.68509 5.21292L4.67778 1.36106C4.68148 1.14123 4.77045 0.931434 4.92592 0.775967C5.08138 0.6205 5.29118 0.531527 5.51101 0.527832C5.73167 0.528891 5.94299 0.617017 6.09902 0.773049C6.25506 0.929081 6.34318 1.1404 6.34424 1.36106L6.33693 5.21292L10.1888 5.20561C10.3956 5.22598 10.5875 5.32256 10.7271 5.47657C10.8667 5.63057 10.944 5.83099 10.944 6.03884C10.944 6.24669 10.8667 6.44712 10.7271 6.60112C10.5875 6.75513 10.3956 6.85171 10.1888 6.87207L6.33693 6.86477L6.34424 10.7166C6.32387 10.9235 6.22729 11.1154 6.07329 11.2549C5.91928 11.3945 5.71886 11.4718 5.51101 11.4718C5.30316 11.4718 5.10274 11.3945 4.94873 11.2549C4.79473 11.1154 4.69815 10.9235 4.67778 10.7166L4.68509 6.86477L0.83323 6.87207Z" fill="#D11010"/>
</svg>
