<svg width="49" height="48" viewBox="0 0 49 48" fill="none" xmlns="http://www.w3.org/2000/svg">
<g clip-path="url(#clip0_1_3386)">
<path d="M38.2886 10.2114C35.5615 7.48432 32.0869 5.62712 28.3043 4.87471C24.5216 4.1223 20.6008 4.50846 17.0377 5.98437C13.4745 7.46028 10.429 9.95964 8.28635 13.1664C6.14366 16.3732 5.00001 20.1433 5.00001 24C5.00001 27.8568 6.14366 31.6269 8.28635 34.8336C10.429 38.0404 13.4745 40.5398 17.0377 42.0157C20.6008 43.4916 24.5216 43.8777 28.3043 43.1253C32.0869 42.3729 35.5615 40.5157 38.2886 37.7886C41.9364 34.1268 43.9845 29.1687 43.9845 24C43.9845 18.8313 41.9364 13.8733 38.2886 10.2114ZM26.0114 32.4853C26.0095 32.8856 25.8497 33.2689 25.5666 33.5519C25.2836 33.835 24.9003 33.9948 24.5 33.9967C24.1012 33.99 23.7207 33.8286 23.4387 33.5466C23.1567 33.2646 22.9953 32.8841 22.9886 32.4853L23.0018 25.4982L16.0147 25.5115C15.616 25.5048 15.2354 25.3434 14.9534 25.0614C14.6714 24.7793 14.51 24.3988 14.5033 24C14.5052 23.5998 14.6651 23.2164 14.9481 22.9334C15.2311 22.6504 15.6145 22.4905 16.0147 22.4886L23.0018 22.5018L22.9886 15.5147C23.0255 15.1395 23.2007 14.7915 23.4801 14.5383C23.7594 14.2851 24.123 14.1448 24.5 14.1448C24.877 14.1448 25.2406 14.2851 25.52 14.5383C25.7993 14.7915 25.9745 15.1395 26.0114 15.5147L25.9982 22.5018L32.9853 22.4886C33.3605 22.5255 33.7086 22.7007 33.9618 22.9801C34.215 23.2594 34.3552 23.623 34.3552 24C34.3552 24.3771 34.215 24.7406 33.9618 25.02C33.7086 25.2993 33.3605 25.4745 32.9853 25.5115L25.9982 25.4982L26.0114 32.4853Z" fill="white"/>
</g>
<defs>
<clipPath id="clip0_1_3386">
<rect width="48" height="48" fill="white" transform="translate(0.5)"/>
</clipPath>
</defs>
</svg>
