<svg width="49" height="48" viewBox="0 0 49 48" fill="none" xmlns="http://www.w3.org/2000/svg">
<path d="M24.5 4.5C20.6433 4.5 16.8731 5.64366 13.6664 7.78634C10.4596 9.92903 7.96027 12.9745 6.48436 16.5377C5.00845 20.1008 4.62228 24.0216 5.3747 27.8043C6.12711 31.5869 7.9843 35.0615 10.7114 37.7886C13.4386 40.5157 16.9131 42.3729 20.6957 43.1253C24.4784 43.8777 28.3992 43.4916 31.9623 42.0156C35.5255 40.5397 38.571 38.0404 40.7137 34.8336C42.8564 31.6269 44 27.8567 44 24C43.9901 18.8313 41.9325 13.8772 38.2776 10.2224C34.6228 6.56755 29.6687 4.50991 24.5 4.5ZM31.5688 28.9313C31.8504 29.2156 32.0084 29.5997 32.0084 30C32.0084 30.4003 31.8504 30.7844 31.5688 31.0687C31.282 31.346 30.8988 31.501 30.5 31.501C30.1012 31.501 29.718 31.346 29.4313 31.0687L24.5 26.1188L19.5688 31.0687C19.282 31.346 18.8988 31.501 18.5 31.501C18.1012 31.501 17.718 31.346 17.4313 31.0687C17.1496 30.7844 16.9916 30.4003 16.9916 30C16.9916 29.5997 17.1496 29.2156 17.4313 28.9313L22.3813 24L17.4313 19.0687C17.1921 18.7773 17.0698 18.4073 17.0883 18.0307C17.1068 17.6542 17.2647 17.2979 17.5313 17.0313C17.7979 16.7647 18.1542 16.6068 18.5307 16.5883C18.9073 16.5698 19.2773 16.6921 19.5688 16.9313L24.5 21.8812L29.4313 16.9313C29.7227 16.6921 30.0927 16.5698 30.4693 16.5883C30.8459 16.6068 31.2021 16.7647 31.4687 17.0313C31.7353 17.2979 31.8932 17.6542 31.9117 18.0307C31.9302 18.4073 31.808 18.7773 31.5688 19.0687L26.6188 24L31.5688 28.9313Z" fill="white"/>
</svg>
