<svg width="21" height="16" viewBox="0 0 21 16" fill="none" xmlns="http://www.w3.org/2000/svg">
<path d="M18.6816 4L10.6816 9L2.68164 4V2L10.6816 7L18.6816 2M18.6816 0H2.68164C1.57164 0 0.681641 0.89 0.681641 2V14C0.681641 14.5304 0.892354 15.0391 1.26743 15.4142C1.6425 15.7893 2.15121 16 2.68164 16H18.6816C19.2121 16 19.7208 15.7893 20.0959 15.4142C20.4709 15.0391 20.6816 14.5304 20.6816 14V2C20.6816 1.46957 20.4709 0.960859 20.0959 0.585786C19.7208 0.210714 19.2121 0 18.6816 0Z" fill="black"/>
</svg>
