<svg width="48" height="48" viewBox="0 0 48 48" fill="none" xmlns="http://www.w3.org/2000/svg">
<path d="M33 41.9998C18.1125 41.9998 6 29.8873 6 14.9998C6.00563 12.4461 6.93839 9.98142 8.62485 8.06388C10.3113 6.14634 12.6367 4.90647 15.1687 4.57477C15.8142 4.5032 16.4657 4.6391 17.0287 4.96275C17.5917 5.2864 18.037 5.78098 18.3 6.37477L22.0687 15.1685C22.2642 15.625 22.3426 16.123 22.2968 16.6175C22.2509 17.1119 22.0823 17.587 21.8062 17.9998L18.6937 22.7623C20.1032 25.6226 22.4255 27.9317 25.2937 29.3248L30 26.1935C30.4123 25.9156 30.8886 25.7474 31.384 25.7047C31.8794 25.6621 32.3775 25.7464 32.8312 25.9498L41.625 29.6998C42.2188 29.9627 42.7134 30.408 43.037 30.9711C43.3607 31.5341 43.4966 32.1856 43.425 32.831C43.0933 35.363 41.8534 37.6884 39.9359 39.3749C38.0184 41.0614 35.5536 41.9941 33 41.9998ZM15.5437 7.55602C13.7343 7.78863 12.0716 8.67279 10.8671 10.043C9.66259 11.4132 8.99879 13.1754 9 14.9998C9.00497 21.3634 11.5351 27.465 16.0349 31.9648C20.5347 36.4646 26.6363 38.9948 33 38.9998C34.8244 39.001 36.5866 38.3372 37.9568 37.1327C39.327 35.9281 40.2111 34.2655 40.4437 32.456L31.65 28.706L26.9625 31.8373C26.5312 32.1224 26.0335 32.2912 25.5177 32.3274C25.002 32.3635 24.4856 32.2657 24.0187 32.0435C20.5255 30.3537 17.6999 27.5413 15.9937 24.056C15.7688 23.5907 15.6679 23.0753 15.7007 22.5595C15.7336 22.0438 15.8991 21.5452 16.1812 21.1123L19.3125 16.3498L15.5437 7.55602Z" fill="white"/>
</svg>
